<svg xmlns="http://www.w3.org/2000/svg" xmlns:xlink="http://www.w3.org/1999/xlink" width="126.665" height="73.118" viewBox="0 0 126.665 73.118">
  <defs>
    <clipPath id="clip-path">
      <path id="Path_5038" data-name="Path 5038" d="M391.321,756.161h0c-9.327-20.316-33.694-34.051-60.909-34.008-27.148.043-51.37,13.785-60.656,34.008h0c9.327,20.316,33.694,34.051,60.909,34.008,27.148-.043,51.369-13.786,60.656-34.008Z" transform="translate(-269.756 -722.153)" fill="#0092bd"/>
    </clipPath>
  </defs>
  <g id="Group_13450" data-name="Group 13450" transform="translate(0)">
    <path id="Path_5023" data-name="Path 5023" d="M390.435,751.882c-9.752-21.238-35.105-35.5-63.1-35.5H327.2c-27.938.051-53.24,14.309-62.975,35.5a2.6,2.6,0,0,0,0,2.134c9.752,21.238,35.105,35.488,63.1,35.488h.128c27.938-.042,53.24-14.3,62.975-35.488A2.6,2.6,0,0,0,390.435,751.882ZM327.451,784.4h-.119c-25.566,0-48.666-12.583-57.959-31.458,9.268-18.823,32.333-31.415,57.84-31.458h.119c25.566,0,48.666,12.592,57.959,31.458C376.024,771.777,352.957,784.369,327.451,784.4Z" transform="translate(-264 -716.386)" fill="#0092bd"/>
    <path id="Path_5024" data-name="Path 5024" d="M403.57,775.159a18.017,18.017,0,1,1-9.463-15.865,6.974,6.974,0,1,0,8.494,10.049A17.757,17.757,0,0,1,403.57,775.159Z" transform="translate(-321.66 -739.084)" fill="#0092bd"/>
    <path id="Path_5025" data-name="Path 5025" d="M374.523,737.326a26.8,26.8,0,1,0,26.79,26.8A26.829,26.829,0,0,0,374.523,737.326Zm0,48.5a21.7,21.7,0,1,1,21.689-21.7A21.724,21.724,0,0,1,374.523,785.822Z" transform="translate(-310.637 -728.05)" fill="#0092bd"/>
    <g id="Group_13449" data-name="Group 13449" transform="translate(2.55 2.554)">
      <g id="Group_13448" data-name="Group 13448" clip-path="url(#clip-path)">
        <path id="Path_5026" data-name="Path 5026" d="M301.751,826.976a2.551,2.551,0,0,1-2.143-3.93l7.108-11.057-1.521-8.363a2.549,2.549,0,0,1,.706-2.26l4.251-4.251a2.55,2.55,0,0,1,3.607,3.607l-3.306,3.306,1.461,8.037a2.549,2.549,0,0,1-.364,1.835L303.9,825.8A2.548,2.548,0,0,1,301.751,826.976Z" transform="translate(-286.159 -763.494)" fill="#0092bd"/>
        <path id="Path_5027" data-name="Path 5027" d="M319.025,831.111a2.551,2.551,0,0,1-.278-5.086l7.652-.85a2.55,2.55,0,0,1,.563,5.07l-7.652.85A2.586,2.586,0,0,1,319.025,831.111Z" transform="translate(-295.782 -779.531)" fill="#0092bd"/>
        <path id="Path_5028" data-name="Path 5028" d="M504.253,808.413a2.536,2.536,0,0,1-1.324-.373l-19.555-11.9a2.551,2.551,0,0,1-1.224-2.178v-6.845l-6.137-2.728a2.552,2.552,0,0,1-1.151-1.018l-2.551-4.251a2.55,2.55,0,1,1,4.374-2.625l2.136,3.56,6.916,3.074a2.551,2.551,0,0,1,1.514,2.331v7.069l18.331,11.158a2.551,2.551,0,0,1-1.329,4.729Z" transform="translate(-382.385 -751.732)" fill="#0092bd"/>
        <path id="Path_5029" data-name="Path 5029" d="M497.529,790.146a2.551,2.551,0,0,1-2.212-3.817l3.4-5.951a2.55,2.55,0,1,1,4.429,2.531l-3.4,5.952A2.55,2.55,0,0,1,497.529,790.146Z" transform="translate(-395.215 -753.87)" fill="#0092bd"/>
        <path id="Path_5030" data-name="Path 5030" d="M486.842,814.688a2.532,2.532,0,0,1-.5-.05l-8.5-1.7a2.551,2.551,0,1,1,1-5l8.5,1.7a2.551,2.551,0,0,1-.5,5.052Z" transform="translate(-384.522 -769.91)" fill="#0092bd"/>
        <path id="Path_5031" data-name="Path 5031" d="M313.878,753.627a2.548,2.548,0,0,1-2.189-1.238l-2.551-4.251a2.555,2.555,0,0,1-.364-1.312v-5.952l-7.141-9.523a2.55,2.55,0,1,1,4.081-3.06l7.652,10.2a2.549,2.549,0,0,1,.51,1.53v6.095l2.187,3.646a2.551,2.551,0,0,1-2.185,3.863Z" transform="translate(-287.229 -725.004)" fill="#0092bd"/>
        <path id="Path_5032" data-name="Path 5032" d="M328.6,757.106a2.575,2.575,0,0,1-.555-.061l-7.652-1.7a2.551,2.551,0,1,1,1.107-4.98l7.652,1.7a2.551,2.551,0,0,1-.551,5.041Z" transform="translate(-296.85 -737.834)" fill="#0092bd"/>
        <path id="Path_5033" data-name="Path 5033" d="M280.807,786.283a2.552,2.552,0,0,1-2.451-1.851l-1.436-5.027-11.094-7.132a2.55,2.55,0,1,1,2.758-4.291l11.9,7.652a2.55,2.55,0,0,1,1.074,1.444l1.7,5.952a2.553,2.553,0,0,1-2.454,3.252Z" transform="translate(-266.914 -747.456)" fill="#0092bd"/>
        <path id="Path_5034" data-name="Path 5034" d="M294.073,788.885a2.551,2.551,0,0,1-.313-5.083l6.8-.85a2.551,2.551,0,0,1,.633,5.062l-6.8.85A2.693,2.693,0,0,1,294.073,788.885Z" transform="translate(-281.882 -756.01)" fill="#0092bd"/>
        <path id="Path_5035" data-name="Path 5035" d="M474.037,850.691a2.55,2.55,0,0,1-2.206-1.266l-5.568-9.547-4.422-2.211a2.551,2.551,0,1,1,2.282-4.562l5.1,2.551a2.551,2.551,0,0,1,1.062,1l5.952,10.2a2.552,2.552,0,0,1-2.2,3.836Z" transform="translate(-375.969 -783.807)" fill="#0092bd"/>
        <path id="Path_5036" data-name="Path 5036" d="M470.66,746.826a2.551,2.551,0,0,1-2.42-3.358l1.7-5.1a2.551,2.551,0,0,1,.7-1.074l10.2-9.352a2.551,2.551,0,0,1,3.447,3.76l-9.715,8.906-1.491,4.474A2.552,2.552,0,0,1,470.66,746.826Z" transform="translate(-380.246 -725.003)" fill="#0092bd"/>
        <path id="Path_5037" data-name="Path 5037" d="M463.807,750.277a2.559,2.559,0,0,1-.734-.108l-8.5-2.551a2.55,2.55,0,0,1,1.465-4.886l8.5,2.55a2.551,2.551,0,0,1-.732,4.995Z" transform="translate(-371.692 -733.556)" fill="#0092bd"/>
      </g>
    </g>
  </g>
</svg>
