<svg id="Group_13452" data-name="Group 13452" xmlns="http://www.w3.org/2000/svg" width="121.563" height="76.97" viewBox="0 0 121.563 76.97">
  <path id="Path_5043" data-name="Path 5043" d="M792.487,1190.324c-1.165,2.3-2.423,4.9-3.571,7.431a68.957,68.957,0,0,0,9.021,4.345C796.44,1198.392,794.349,1193.98,792.487,1190.324Zm34.111-35.981a19.147,19.147,0,1,0,19.146,19.147A19.164,19.164,0,0,0,826.6,1154.343Zm0,27.147a8,8,0,1,1,8-8A8,8,0,0,1,826.6,1181.49Zm0-27.147a19.147,19.147,0,1,0,19.146,19.147A19.164,19.164,0,0,0,826.6,1154.343Zm0,27.147a8,8,0,1,1,8-8A8,8,0,0,1,826.6,1181.49Zm0-27.147a19.147,19.147,0,1,0,19.146,19.147A19.164,19.164,0,0,0,826.6,1154.343Zm0,27.147a8,8,0,1,1,8-8A8,8,0,0,1,826.6,1181.49Zm0-27.147a19.147,19.147,0,1,0,19.146,19.147A19.164,19.164,0,0,0,826.6,1154.343Zm0,27.147a8,8,0,1,1,8-8A8,8,0,0,1,826.6,1181.49Zm0-27.147a19.147,19.147,0,1,0,19.146,19.147A19.164,19.164,0,0,0,826.6,1154.343Zm0,27.147a8,8,0,1,1,8-8A8,8,0,0,1,826.6,1181.49Zm0-27.147a19.147,19.147,0,1,0,19.146,19.147A19.164,19.164,0,0,0,826.6,1154.343Zm0,27.147a8,8,0,1,1,8-8A8,8,0,0,1,826.6,1181.49Zm0-27.147a19.147,19.147,0,1,0,19.146,19.147A19.164,19.164,0,0,0,826.6,1154.343Zm0,27.147a8,8,0,1,1,8-8A8,8,0,0,1,826.6,1181.49Zm0-27.147a19.147,19.147,0,1,0,19.146,19.147A19.164,19.164,0,0,0,826.6,1154.343Zm0,27.147a8,8,0,1,1,8-8A8,8,0,0,1,826.6,1181.49Zm0-27.147a19.147,19.147,0,1,0,19.146,19.147A19.164,19.164,0,0,0,826.6,1154.343Zm0,27.147a8,8,0,1,1,8-8A8,8,0,0,1,826.6,1181.49Zm0-27.147a19.147,19.147,0,1,0,19.146,19.147A19.164,19.164,0,0,0,826.6,1154.343Zm0,27.147a8,8,0,1,1,8-8A8,8,0,0,1,826.6,1181.49Zm0-27.147a19.147,19.147,0,1,0,19.146,19.147A19.164,19.164,0,0,0,826.6,1154.343Zm0,27.147a8,8,0,1,1,8-8A8,8,0,0,1,826.6,1181.49Zm0-27.147a19.147,19.147,0,1,0,19.146,19.147A19.164,19.164,0,0,0,826.6,1154.343Zm0,27.147a8,8,0,1,1,8-8A8,8,0,0,1,826.6,1181.49Zm0-27.147a19.147,19.147,0,1,0,19.146,19.147A19.164,19.164,0,0,0,826.6,1154.343Zm0,27.147a8,8,0,1,1,8-8A8,8,0,0,1,826.6,1181.49Zm0-27.147a19.147,19.147,0,1,0,19.146,19.147A19.164,19.164,0,0,0,826.6,1154.343Zm0,27.147a8,8,0,1,1,8-8A8,8,0,0,1,826.6,1181.49Zm0-27.147a19.147,19.147,0,1,0,19.146,19.147A19.164,19.164,0,0,0,826.6,1154.343Zm0,27.147a8,8,0,1,1,8-8A8,8,0,0,1,826.6,1181.49Zm0-27.147a19.147,19.147,0,1,0,19.146,19.147A19.164,19.164,0,0,0,826.6,1154.343Zm0,27.147a8,8,0,1,1,8-8A8,8,0,0,1,826.6,1181.49Zm0-27.147a19.147,19.147,0,1,0,19.146,19.147A19.164,19.164,0,0,0,826.6,1154.343Zm0,27.147a8,8,0,1,1,8-8A8,8,0,0,1,826.6,1181.49Zm0-27.147a19.147,19.147,0,1,0,19.146,19.147A19.164,19.164,0,0,0,826.6,1154.343Zm0,27.147a8,8,0,1,1,8-8A8,8,0,0,1,826.6,1181.49Zm0-27.147a19.147,19.147,0,1,0,19.146,19.147A19.164,19.164,0,0,0,826.6,1154.343Zm0,27.147a8,8,0,1,1,8-8A8,8,0,0,1,826.6,1181.49Zm0-27.147a19.147,19.147,0,1,0,19.146,19.147A19.164,19.164,0,0,0,826.6,1154.343Zm0,27.147a8,8,0,1,1,8-8A8,8,0,0,1,826.6,1181.49Zm0-27.147a19.147,19.147,0,1,0,19.146,19.147A19.164,19.164,0,0,0,826.6,1154.343Zm0,27.147a8,8,0,1,1,8-8A8,8,0,0,1,826.6,1181.49Zm0-27.147a19.147,19.147,0,1,0,19.146,19.147A19.164,19.164,0,0,0,826.6,1154.343Zm0,27.147a8,8,0,1,1,8-8A8,8,0,0,1,826.6,1181.49Zm0-27.147a19.147,19.147,0,1,0,19.146,19.147A19.164,19.164,0,0,0,826.6,1154.343Zm0,27.147a8,8,0,1,1,8-8A8,8,0,0,1,826.6,1181.49Zm0-27.147a19.147,19.147,0,1,0,19.146,19.147A19.164,19.164,0,0,0,826.6,1154.343Zm0,27.147a8,8,0,1,1,8-8A8,8,0,0,1,826.6,1181.49Zm0-27.147a19.147,19.147,0,1,0,19.146,19.147A19.164,19.164,0,0,0,826.6,1154.343Zm0,27.147a8,8,0,1,1,8-8A8,8,0,0,1,826.6,1181.49Zm0-27.147a19.147,19.147,0,1,0,19.146,19.147A19.164,19.164,0,0,0,826.6,1154.343Zm0,27.147a8,8,0,1,1,8-8A8,8,0,0,1,826.6,1181.49Zm0-27.147a19.147,19.147,0,1,0,19.146,19.147A19.164,19.164,0,0,0,826.6,1154.343Zm0,27.147a8,8,0,1,1,8-8A8,8,0,0,1,826.6,1181.49Zm0-27.147a19.147,19.147,0,1,0,19.146,19.147A19.164,19.164,0,0,0,826.6,1154.343Zm0,27.147a8,8,0,1,1,8-8A8,8,0,0,1,826.6,1181.49Zm0-27.147a19.147,19.147,0,1,0,19.146,19.147A19.164,19.164,0,0,0,826.6,1154.343Zm0,27.147a8,8,0,1,1,8-8A8,8,0,0,1,826.6,1181.49Zm0-27.147a19.147,19.147,0,1,0,19.146,19.147A19.164,19.164,0,0,0,826.6,1154.343Zm0,27.147a8,8,0,1,1,8-8A8,8,0,0,1,826.6,1181.49Zm0-27.147a19.147,19.147,0,1,0,19.146,19.147A19.164,19.164,0,0,0,826.6,1154.343Zm0,27.147a8,8,0,1,1,8-8A8,8,0,0,1,826.6,1181.49Zm0-27.147a19.147,19.147,0,1,0,19.146,19.147A19.164,19.164,0,0,0,826.6,1154.343Zm0,27.147a8,8,0,1,1,8-8A8,8,0,0,1,826.6,1181.49Zm0-27.147a19.147,19.147,0,1,0,19.146,19.147A19.164,19.164,0,0,0,826.6,1154.343Zm0,27.147a8,8,0,1,1,8-8A8,8,0,0,1,826.6,1181.49Zm0-27.147a19.147,19.147,0,1,0,19.146,19.147A19.164,19.164,0,0,0,826.6,1154.343Zm0,27.147a8,8,0,1,1,8-8A8,8,0,0,1,826.6,1181.49Zm0-27.147a19.147,19.147,0,1,0,19.146,19.147A19.164,19.164,0,0,0,826.6,1154.343Zm0,27.147a8,8,0,1,1,8-8A8,8,0,0,1,826.6,1181.49Zm0-27.147a19.147,19.147,0,1,0,19.146,19.147A19.164,19.164,0,0,0,826.6,1154.343Zm0,27.147a8,8,0,1,1,8-8A8,8,0,0,1,826.6,1181.49Zm0-27.147a19.147,19.147,0,1,0,19.146,19.147A19.164,19.164,0,0,0,826.6,1154.343Zm0,27.147a8,8,0,1,1,8-8A8,8,0,0,1,826.6,1181.49Zm0-27.147a19.147,19.147,0,1,0,19.146,19.147A19.164,19.164,0,0,0,826.6,1154.343Zm0,27.147a8,8,0,1,1,8-8A8,8,0,0,1,826.6,1181.49Zm0-27.147a19.147,19.147,0,1,0,19.146,19.147A19.164,19.164,0,0,0,826.6,1154.343Zm0,27.147a8,8,0,1,1,8-8A8,8,0,0,1,826.6,1181.49Zm0-27.147a19.147,19.147,0,1,0,19.146,19.147A19.164,19.164,0,0,0,826.6,1154.343Zm0,27.147a8,8,0,1,1,8-8A8,8,0,0,1,826.6,1181.49Zm0-27.147a19.147,19.147,0,1,0,19.146,19.147A19.164,19.164,0,0,0,826.6,1154.343Zm0,27.147a8,8,0,1,1,8-8A8,8,0,0,1,826.6,1181.49Zm0-27.147a19.147,19.147,0,1,0,19.146,19.147A19.164,19.164,0,0,0,826.6,1154.343Zm0,27.147a8,8,0,1,1,8-8A8,8,0,0,1,826.6,1181.49Zm0-27.147a19.147,19.147,0,1,0,19.146,19.147A19.164,19.164,0,0,0,826.6,1154.343Zm0,27.147a8,8,0,1,1,8-8A8,8,0,0,1,826.6,1181.49Zm0-27.147a19.147,19.147,0,1,0,19.146,19.147A19.164,19.164,0,0,0,826.6,1154.343Zm0,27.147a8,8,0,1,1,8-8A8,8,0,0,1,826.6,1181.49Zm0-27.147a19.147,19.147,0,1,0,19.146,19.147A19.164,19.164,0,0,0,826.6,1154.343Zm0,27.147a8,8,0,1,1,8-8A8,8,0,0,1,826.6,1181.49Zm0-27.147a19.147,19.147,0,1,0,19.146,19.147A19.164,19.164,0,0,0,826.6,1154.343Zm0,27.147a8,8,0,1,1,8-8A8,8,0,0,1,826.6,1181.49Zm-.128-42.009c-27.148.043-51.37,13.782-60.654,34.009,4.124,8.987,11.2,16.69,20.167,22.471,2.21-4.846,4.523-9.225,5.008-10.117a1.672,1.672,0,0,1,1.5-.9,1.7,1.7,0,0,1,1.5.9c.731,1.369,5.782,10.933,8.154,17.787A78.267,78.267,0,0,0,826.6,1207.5h.127c27.147-.042,51.37-13.79,60.654-34.008C878.052,1153.17,853.685,1139.439,826.47,1139.481Zm.128,58.257a24.248,24.248,0,1,1,24.248-24.248A24.275,24.275,0,0,1,826.6,1197.738Zm0-43.4a19.147,19.147,0,1,0,19.146,19.147A19.164,19.164,0,0,0,826.6,1154.343Zm0,27.147a8,8,0,1,1,8-8A8,8,0,0,1,826.6,1181.49Zm0-27.147a19.147,19.147,0,1,0,19.146,19.147A19.164,19.164,0,0,0,826.6,1154.343Zm0,27.147a8,8,0,1,1,8-8A8,8,0,0,1,826.6,1181.49Zm0-27.147a19.147,19.147,0,1,0,19.146,19.147A19.164,19.164,0,0,0,826.6,1154.343Zm0,27.147a8,8,0,1,1,8-8A8,8,0,0,1,826.6,1181.49Zm0-27.147a19.147,19.147,0,1,0,19.146,19.147A19.164,19.164,0,0,0,826.6,1154.343Zm0,27.147a8,8,0,1,1,8-8A8,8,0,0,1,826.6,1181.49Zm0-27.147a19.147,19.147,0,1,0,19.146,19.147A19.164,19.164,0,0,0,826.6,1154.343Zm0,27.147a8,8,0,1,1,8-8A8,8,0,0,1,826.6,1181.49Zm0-27.147a19.147,19.147,0,1,0,19.146,19.147A19.164,19.164,0,0,0,826.6,1154.343Zm0,27.147a8,8,0,1,1,8-8A8,8,0,0,1,826.6,1181.49Zm0-27.147a19.147,19.147,0,1,0,19.146,19.147A19.164,19.164,0,0,0,826.6,1154.343Zm0,27.147a8,8,0,1,1,8-8A8,8,0,0,1,826.6,1181.49Zm0-27.147a19.147,19.147,0,1,0,19.146,19.147A19.164,19.164,0,0,0,826.6,1154.343Zm0,27.147a8,8,0,1,1,8-8A8,8,0,0,1,826.6,1181.49Zm0-27.147a19.147,19.147,0,1,0,19.146,19.147A19.164,19.164,0,0,0,826.6,1154.343Zm0,27.147a8,8,0,1,1,8-8A8,8,0,0,1,826.6,1181.49Zm0-27.147a19.147,19.147,0,1,0,19.146,19.147A19.164,19.164,0,0,0,826.6,1154.343Zm0,27.147a8,8,0,1,1,8-8A8,8,0,0,1,826.6,1181.49Zm0-27.147a19.147,19.147,0,1,0,19.146,19.147A19.164,19.164,0,0,0,826.6,1154.343Zm0,27.147a8,8,0,1,1,8-8A8,8,0,0,1,826.6,1181.49Zm0-27.147a19.147,19.147,0,1,0,19.146,19.147A19.164,19.164,0,0,0,826.6,1154.343Zm0,27.147a8,8,0,1,1,8-8A8,8,0,0,1,826.6,1181.49Zm0-27.147a19.147,19.147,0,1,0,19.146,19.147A19.164,19.164,0,0,0,826.6,1154.343Zm0,27.147a8,8,0,1,1,8-8A8,8,0,0,1,826.6,1181.49Zm0-27.147a19.147,19.147,0,1,0,19.146,19.147A19.164,19.164,0,0,0,826.6,1154.343Zm0,27.147a8,8,0,1,1,8-8A8,8,0,0,1,826.6,1181.49Zm0-27.147a19.147,19.147,0,1,0,19.146,19.147A19.164,19.164,0,0,0,826.6,1154.343Zm0,27.147a8,8,0,1,1,8-8A8,8,0,0,1,826.6,1181.49Zm0-27.147a19.147,19.147,0,1,0,19.146,19.147A19.164,19.164,0,0,0,826.6,1154.343Zm0,27.147a8,8,0,1,1,8-8A8,8,0,0,1,826.6,1181.49Zm0-27.147a19.147,19.147,0,1,0,19.146,19.147A19.164,19.164,0,0,0,826.6,1154.343Zm0,27.147a8,8,0,1,1,8-8A8,8,0,0,1,826.6,1181.49Zm0-27.147a19.147,19.147,0,1,0,19.146,19.147A19.164,19.164,0,0,0,826.6,1154.343Zm0,27.147a8,8,0,1,1,8-8A8,8,0,0,1,826.6,1181.49Zm0-27.147a19.147,19.147,0,1,0,19.146,19.147A19.164,19.164,0,0,0,826.6,1154.343Zm0,27.147a8,8,0,1,1,8-8A8,8,0,0,1,826.6,1181.49Zm0-27.147a19.147,19.147,0,1,0,19.146,19.147A19.164,19.164,0,0,0,826.6,1154.343Zm0,27.147a8,8,0,1,1,8-8A8,8,0,0,1,826.6,1181.49Zm0-27.147a19.147,19.147,0,1,0,19.146,19.147A19.164,19.164,0,0,0,826.6,1154.343Zm0,27.147a8,8,0,1,1,8-8A8,8,0,0,1,826.6,1181.49Zm0-27.147a19.147,19.147,0,1,0,19.146,19.147A19.164,19.164,0,0,0,826.6,1154.343Zm0,27.147a8,8,0,1,1,8-8A8,8,0,0,1,826.6,1181.49Zm0-27.147a19.147,19.147,0,1,0,19.146,19.147A19.164,19.164,0,0,0,826.6,1154.343Zm0,27.147a8,8,0,1,1,8-8A8,8,0,0,1,826.6,1181.49Zm0-27.147a19.147,19.147,0,1,0,19.146,19.147A19.164,19.164,0,0,0,826.6,1154.343Zm0,27.147a8,8,0,1,1,8-8A8,8,0,0,1,826.6,1181.49Zm0-27.147a19.147,19.147,0,1,0,19.146,19.147A19.164,19.164,0,0,0,826.6,1154.343Zm0,27.147a8,8,0,1,1,8-8A8,8,0,0,1,826.6,1181.49Zm0-27.147a19.147,19.147,0,1,0,19.146,19.147A19.164,19.164,0,0,0,826.6,1154.343Zm0,27.147a8,8,0,1,1,8-8A8,8,0,0,1,826.6,1181.49Zm0-27.147a19.147,19.147,0,1,0,19.146,19.147A19.164,19.164,0,0,0,826.6,1154.343Zm0,27.147a8,8,0,1,1,8-8A8,8,0,0,1,826.6,1181.49Zm0-27.147a19.147,19.147,0,1,0,19.146,19.147A19.164,19.164,0,0,0,826.6,1154.343Zm0,27.147a8,8,0,1,1,8-8A8,8,0,0,1,826.6,1181.49Zm0-27.147a19.147,19.147,0,1,0,19.146,19.147A19.164,19.164,0,0,0,826.6,1154.343Zm0,27.147a8,8,0,1,1,8-8A8,8,0,0,1,826.6,1181.49Zm0-27.147a19.147,19.147,0,1,0,19.146,19.147A19.164,19.164,0,0,0,826.6,1154.343Zm0,27.147a8,8,0,1,1,8-8A8,8,0,0,1,826.6,1181.49Zm0-27.147a19.147,19.147,0,1,0,19.146,19.147A19.164,19.164,0,0,0,826.6,1154.343Zm0,27.147a8,8,0,1,1,8-8A8,8,0,0,1,826.6,1181.49Zm0-27.147a19.147,19.147,0,1,0,19.146,19.147A19.164,19.164,0,0,0,826.6,1154.343Zm0,27.147a8,8,0,1,1,8-8A8,8,0,0,1,826.6,1181.49Zm0-27.147a19.147,19.147,0,1,0,19.146,19.147A19.164,19.164,0,0,0,826.6,1154.343Zm0,27.147a8,8,0,1,1,8-8A8,8,0,0,1,826.6,1181.49Zm0-27.147a19.147,19.147,0,1,0,19.146,19.147A19.164,19.164,0,0,0,826.6,1154.343Zm0,27.147a8,8,0,1,1,8-8A8,8,0,0,1,826.6,1181.49Zm0-27.147a19.147,19.147,0,1,0,19.146,19.147A19.164,19.164,0,0,0,826.6,1154.343Zm0,27.147a8,8,0,1,1,8-8A8,8,0,0,1,826.6,1181.49Zm0-27.147a19.147,19.147,0,1,0,19.146,19.147A19.164,19.164,0,0,0,826.6,1154.343Zm0,27.147a8,8,0,1,1,8-8A8,8,0,0,1,826.6,1181.49Zm0-27.147a19.147,19.147,0,1,0,19.146,19.147A19.164,19.164,0,0,0,826.6,1154.343Zm0,27.147a8,8,0,1,1,8-8A8,8,0,0,1,826.6,1181.49Zm0-27.147a19.147,19.147,0,1,0,19.146,19.147A19.164,19.164,0,0,0,826.6,1154.343Zm0,27.147a8,8,0,1,1,8-8A8,8,0,0,1,826.6,1181.49Zm0-27.147a19.147,19.147,0,1,0,19.146,19.147A19.164,19.164,0,0,0,826.6,1154.343Zm0,27.147a8,8,0,1,1,8-8A8,8,0,0,1,826.6,1181.49Zm0-27.147a19.147,19.147,0,1,0,19.146,19.147A19.164,19.164,0,0,0,826.6,1154.343Zm0,27.147a8,8,0,1,1,8-8A8,8,0,0,1,826.6,1181.49Zm0-27.147a19.147,19.147,0,1,0,19.146,19.147A19.164,19.164,0,0,0,826.6,1154.343Zm0,27.147a8,8,0,1,1,8-8A8,8,0,0,1,826.6,1181.49Zm0-27.147a19.147,19.147,0,1,0,19.146,19.147A19.164,19.164,0,0,0,826.6,1154.343Zm0,27.147a8,8,0,1,1,8-8A8,8,0,0,1,826.6,1181.49Zm0-27.147a19.147,19.147,0,1,0,19.146,19.147A19.164,19.164,0,0,0,826.6,1154.343Zm0,27.147a8,8,0,1,1,8-8A8,8,0,0,1,826.6,1181.49Zm0-27.147a19.147,19.147,0,1,0,19.146,19.147A19.164,19.164,0,0,0,826.6,1154.343Zm0,27.147a8,8,0,1,1,8-8A8,8,0,0,1,826.6,1181.49Zm0-27.147a19.147,19.147,0,1,0,19.146,19.147A19.164,19.164,0,0,0,826.6,1154.343Zm0,27.147a8,8,0,1,1,8-8A8,8,0,0,1,826.6,1181.49Zm-34.111,8.834c-1.165,2.3-2.423,4.9-3.571,7.431a68.957,68.957,0,0,0,9.021,4.345C796.44,1198.392,794.349,1193.98,792.487,1190.324Zm34.111-35.981a19.147,19.147,0,1,0,19.146,19.147A19.164,19.164,0,0,0,826.6,1154.343Zm0,27.147a8,8,0,1,1,8-8A8,8,0,0,1,826.6,1181.49Zm0-27.147a19.147,19.147,0,1,0,19.146,19.147A19.164,19.164,0,0,0,826.6,1154.343Zm0,27.147a8,8,0,1,1,8-8A8,8,0,0,1,826.6,1181.49Z" transform="translate(-765.816 -1139.481)" fill="#0073cc"/>
  <path id="Path_5044" data-name="Path 5044" d="M824.1,1272.9a7.49,7.49,0,1,1-14.981,0c0-1.913,1.76-6.445,3.92-11.206,1.148-2.534,2.406-5.135,3.571-7.431,1.862,3.656,3.953,8.068,5.45,11.776C823.273,1269.038,824.1,1271.58,824.1,1272.9Z" transform="translate(-789.936 -1203.418)" fill="#0073cc"/>
</svg>
