<svg id="Group_13451" data-name="Group 13451" xmlns="http://www.w3.org/2000/svg" width="127.175" height="73.118" viewBox="0 0 127.175 73.118">
  <path id="Path_5039" data-name="Path 5039" d="M1874.022,1578.682c-9.752-21.247-35.1-35.5-63.1-35.5h-.128c-27.938.042-53.24,14.309-62.975,35.5l-.485,1.063.485,1.063c9.752,21.247,35.105,35.5,63.1,35.5h.127c27.938-.043,53.24-14.309,62.975-35.5l.485-1.063Zm-62.984,32.521h-.119c-25.566,0-48.666-12.583-57.959-31.458,9.268-18.823,32.334-31.415,57.84-31.458h.119c25.566,0,48.666,12.583,57.959,31.458C1859.6,1598.569,1836.544,1611.16,1811.038,1611.2Z" transform="translate(-1747.332 -1543.186)" fill="#fff"/>
  <path id="Path_5040" data-name="Path 5040" d="M1870.194,1588.58a16.451,16.451,0,1,0,16.452,16.452A16.47,16.47,0,0,0,1870.194,1588.58Zm0,27.8a11.35,11.35,0,1,1,11.351-11.35A11.365,11.365,0,0,1,1870.194,1616.382Z" transform="translate(-1806.607 -1568.472)" fill="#fff"/>
  <path id="Path_5041" data-name="Path 5041" d="M1838.072,1574.771a.859.859,0,0,0-.4.4l-.374.739c.357-.45.731-.893,1.122-1.318Zm0,0a.859.859,0,0,0-.4.4l-.374.739c.357-.45.731-.893,1.122-1.318Zm0,0a.859.859,0,0,0-.4.4l-.374.739c.357-.45.731-.893,1.122-1.318Zm0,0a.859.859,0,0,0-.4.4l-.374.739c.357-.45.731-.893,1.122-1.318Zm0,0a.859.859,0,0,0-.4.4l-.374.739c.357-.45.731-.893,1.122-1.318Zm0,0a.859.859,0,0,0-.4.4l-.374.739c.357-.45.731-.893,1.122-1.318Zm0,0a.859.859,0,0,0-.4.4l-.374.739c.357-.45.731-.893,1.122-1.318Zm0,0a.859.859,0,0,0-.4.4l-.374.739c.357-.45.731-.893,1.122-1.318Zm0,0a.859.859,0,0,0-.4.4l-.374.739c.357-.45.731-.893,1.122-1.318Zm0,0a.859.859,0,0,0-.4.4l-.374.739c.357-.45.731-.893,1.122-1.318Zm0,0a.859.859,0,0,0-.4.4l-.374.739c.357-.45.731-.893,1.122-1.318Zm0,0a.859.859,0,0,0-.4.4l-.374.739c.357-.45.731-.893,1.122-1.318Zm0,0a.859.859,0,0,0-.4.4l-.374.739c.357-.45.731-.893,1.122-1.318Zm0,0a.859.859,0,0,0-.4.4l-.374.739c.357-.45.731-.893,1.122-1.318Zm0,0a.859.859,0,0,0-.4.4l-.374.739c.357-.45.731-.893,1.122-1.318Zm0,0a.859.859,0,0,0-.4.4l-.374.739c.357-.45.731-.893,1.122-1.318Zm0,0a.859.859,0,0,0-.4.4l-.374.739c.357-.45.731-.893,1.122-1.318Zm0,0a.859.859,0,0,0-.4.4l-.374.739c.357-.45.731-.893,1.122-1.318Zm0,0a.859.859,0,0,0-.4.4l-.374.739c.357-.45.731-.893,1.122-1.318Zm0,0a.859.859,0,0,0-.4.4l-.374.739c.357-.45.731-.893,1.122-1.318Zm0,0a.859.859,0,0,0-.4.4l-.374.739c.357-.45.731-.893,1.122-1.318Zm0,0a.859.859,0,0,0-.4.4l-.374.739c.357-.45.731-.893,1.122-1.318Zm0,0a.859.859,0,0,0-.4.4l-.374.739c.357-.45.731-.893,1.122-1.318Zm0,0a.859.859,0,0,0-.4.4l-.374.739c.357-.45.731-.893,1.122-1.318Zm0,0a.859.859,0,0,0-.4.4l-.374.739c.357-.45.731-.893,1.122-1.318Zm0,0a.859.859,0,0,0-.4.4l-.374.739c.357-.45.731-.893,1.122-1.318Zm0,0a.859.859,0,0,0-.4.4l-.374.739c.357-.45.731-.893,1.122-1.318Zm0,0a.859.859,0,0,0-.4.4l-.374.739c.357-.45.731-.893,1.122-1.318Zm0,0a.859.859,0,0,0-.4.4l-.374.739c.357-.45.731-.893,1.122-1.318Zm17.336-12.737a28.038,28.038,0,0,0-15.585,4.71q-.713.472-1.4.995c-.467.348-.918.714-1.36,1.1l.612,1.216a.9.9,0,0,0,.4.4l2.712,1.352a.837.837,0,0,1,.34.3c.442-.357.9-.7,1.369-1.011s.961-.621,1.454-.9a22.854,22.854,0,0,1,11.461-3.052,23.122,23.122,0,1,1-21.392,14.377c.213-.536.451-1.054.714-1.564.264-.536.553-1.063.859-1.582a.242.242,0,0,1-.077.008.878.878,0,0,1-.8-.493l-1.36-2.711a.861.861,0,0,0-.4-.4l-.842-.425c-.315.468-.629.952-.918,1.445s-.57.978-.825,1.479a27.907,27.907,0,0,0-3.172,12.974,28.21,28.21,0,1,0,28.21-28.21Zm-17.735,13.136-.374.739c.357-.45.731-.893,1.122-1.318l-.348.178A.859.859,0,0,0,1837.672,1575.17Zm.4-.4a.859.859,0,0,0-.4.4l-.374.739c.357-.45.731-.893,1.122-1.318Zm0,0a.859.859,0,0,0-.4.4l-.374.739c.357-.45.731-.893,1.122-1.318Zm0,0a.859.859,0,0,0-.4.4l-.374.739c.357-.45.731-.893,1.122-1.318Zm0,0a.859.859,0,0,0-.4.4l-.374.739c.357-.45.731-.893,1.122-1.318Zm0,0a.859.859,0,0,0-.4.4l-.374.739c.357-.45.731-.893,1.122-1.318Zm0,0a.859.859,0,0,0-.4.4l-.374.739c.357-.45.731-.893,1.122-1.318Zm0,0a.859.859,0,0,0-.4.4l-.374.739c.357-.45.731-.893,1.122-1.318Zm0,0a.859.859,0,0,0-.4.4l-.374.739c.357-.45.731-.893,1.122-1.318Zm0,0a.859.859,0,0,0-.4.4l-.374.739c.357-.45.731-.893,1.122-1.318Zm0,0a.859.859,0,0,0-.4.4l-.374.739c.357-.45.731-.893,1.122-1.318Zm0,0a.859.859,0,0,0-.4.4l-.374.739c.357-.45.731-.893,1.122-1.318Zm0,0a.859.859,0,0,0-.4.4l-.374.739c.357-.45.731-.893,1.122-1.318Zm0,0a.859.859,0,0,0-.4.4l-.374.739c.357-.45.731-.893,1.122-1.318Zm0,0a.859.859,0,0,0-.4.4l-.374.739c.357-.45.731-.893,1.122-1.318Zm0,0a.859.859,0,0,0-.4.4l-.374.739c.357-.45.731-.893,1.122-1.318Zm0,0a.859.859,0,0,0-.4.4l-.374.739c.357-.45.731-.893,1.122-1.318Zm0,0a.859.859,0,0,0-.4.4l-.374.739c.357-.45.731-.893,1.122-1.318Zm0,0a.859.859,0,0,0-.4.4l-.374.739c.357-.45.731-.893,1.122-1.318Zm0,0a.859.859,0,0,0-.4.4l-.374.739c.357-.45.731-.893,1.122-1.318Zm0,0a.859.859,0,0,0-.4.4l-.374.739c.357-.45.731-.893,1.122-1.318Zm0,0a.859.859,0,0,0-.4.4l-.374.739c.357-.45.731-.893,1.122-1.318Zm0,0a.859.859,0,0,0-.4.4l-.374.739c.357-.45.731-.893,1.122-1.318Zm0,0a.859.859,0,0,0-.4.4l-.374.739c.357-.45.731-.893,1.122-1.318Zm0,0a.859.859,0,0,0-.4.4l-.374.739c.357-.45.731-.893,1.122-1.318Zm0,0a.859.859,0,0,0-.4.4l-.374.739c.357-.45.731-.893,1.122-1.318Zm0,0a.859.859,0,0,0-.4.4l-.374.739c.357-.45.731-.893,1.122-1.318Zm0,0a.859.859,0,0,0-.4.4l-.374.739c.357-.45.731-.893,1.122-1.318Zm0,0a.859.859,0,0,0-.4.4l-.374.739c.357-.45.731-.893,1.122-1.318Z" transform="translate(-1791.82 -1553.685)" fill="#fff"/>
  <path id="Path_5042" data-name="Path 5042" d="M1842.878,1571.952a4.3,4.3,0,0,0-1.641-1.42l-1.965-.986-.519-1.037-.467-.927a4.291,4.291,0,0,0-7.686,0l-.987,1.964-1.963.986a4.3,4.3,0,0,0,0,7.686l1.649.816.314.162.987,1.972a4.311,4.311,0,0,0,2.346,2.109,4.4,4.4,0,0,0,1.5.263,4.27,4.27,0,0,0,3.843-2.372l.986-1.972,1.965-.978a4.307,4.307,0,0,0,1.641-6.266Zm-3.163,3.222-2.364,1.182-.348.178a.86.86,0,0,0-.4.4l-.374.739-.987,1.972a.835.835,0,0,1-.722.485.237.237,0,0,1-.077.009.878.878,0,0,1-.8-.493l-1.36-2.711a.863.863,0,0,0-.4-.4l-.842-.425-1.871-.935a.9.9,0,0,1,0-1.607l2.712-1.352a.9.9,0,0,0,.4-.4l1.36-2.721a.893.893,0,0,1,.8-.493.883.883,0,0,1,.8.493l.749,1.505.612,1.216a.9.9,0,0,0,.4.4l2.712,1.352a.838.838,0,0,1,.341.3A.894.894,0,0,1,1839.714,1575.174Z" transform="translate(-1790.751 -1555.449)" fill="#fff"/>
</svg>
